<svg id="Layer_1" data-name="Layer 1" xmlns="http://www.w3.org/2000/svg" viewBox="0 0 324 173"><defs><style>.cls-1{fill:#074926;}.cls-2{fill:#fff;}</style></defs><path class="cls-1" d="M170.25,27.52A16.61,16.61,0,0,0,170,24c-1.54-6.94-7-10.79-15.15-10.69a13.64,13.64,0,0,0-13.5,11.31,3.14,3.14,0,0,1-1.5,1.94c-2.54,1.24-5.14,2.36-7.77,3.39A158.54,158.54,0,0,1,74.61,40.62c-12.17.07-23.34,3.43-32.86,11.4-15.88,13.3-16.34,34.41-1.07,48.37A4,4,0,0,1,41.86,103c.08,10.27,0,20.54.07,30.8.13,16.82,13.45,30.67,29.78,31.09,3.32.09,4.44-1,4.45-4.25q0-13.62,0-27.25v-2.09c13.64,1.26,20.93-7.43,21.54-17.06,3.23.59,6.33,1.08,9.41,1.72a142,142,0,0,1,32.5,10.67,3.26,3.26,0,0,1,1.69,1.82c1.65,8,7.86,12.39,16.65,11.51,7.28-.73,12.3-6.44,12.31-14.15Q170.29,76.68,170.25,27.52ZM69.73,158.27a19.43,19.43,0,0,1-8.68-2.77c-8.16-4.74-12.53-11.9-12.76-21.3-.22-9.08,0-18.16,0-27.24,0-.24,0-.48.11-1a54.28,54.28,0,0,0,21.38,6.54ZM46.19,96.76c-6.61-5.44-10.54-12.21-10.25-21a23.83,23.83,0,0,1,6.81-16C50,52.19,59,48.39,69.27,47.3c3.65-.39,7.33-.41,11.14-.6v59.76C67.89,106.8,56.14,105,46.19,96.76Zm30.07,28.06v-12.1l14.73.75C92.21,120.68,85.64,125.72,76.26,124.82Z"/><path class="cls-1" d="M235.66,125.71a58.83,58.83,0,1,0-58.83-58.88A58.84,58.84,0,0,0,235.66,125.71Z"/><path class="cls-2" d="M226.37,77.68a9,9,0,0,1,.93-1.44q15.44-15.46,30.88-30.9a6.05,6.05,0,0,1,4.38-2.15,5.21,5.21,0,0,1,4.86,2.94,5.09,5.09,0,0,1-.41,5.64,11.32,11.32,0,0,1-1.26,1.42L230.62,88.32c-3.07,3.07-6,3.06-9.07,0Q213.36,80.15,205.19,72c-2-2-2.49-4.46-1.33-6.68,1.77-3.39,6-3.94,8.95-1.08,4.08,4,8.09,8.08,12.14,12.12C225.29,76.66,225.65,77,226.37,77.68Z"/></svg>