<svg id="Layer_1" data-name="Layer 1" xmlns="http://www.w3.org/2000/svg" viewBox="0 0 324 331"><defs><style>.cls-1{fill:none;}.cls-2{fill:#fff;}.cls-3{fill:#074926;}</style></defs><path class="cls-1" d="M243.53,238.39c-.12.13-.23.26-.35.38C243.3,238.64,243.42,238.52,243.53,238.39Z"/><path class="cls-1" d="M235.83,246.11l-.71.64Z"/><path class="cls-1" d="M228.45,252.41c2.4-1.9,4.6-3.78,6.58-5.57-1.85,1.66-3.77,3.27-5.76,4.85A10,10,0,0,0,228.45,252.41Z"/><path class="cls-2" d="M85.31,243.5a108.51,108.51,0,0,1-13.85-16.56A92.87,92.87,0,0,0,85.31,243.5Z"/><path class="cls-3" d="M229.27,251.69c2-1.58,3.91-3.19,5.76-4.85l.09-.09.71-.64c3.09-2.85,5.58-5.41,7.35-7.34.12-.12.23-.25.35-.38l.43-.47a106.67,106.67,0,0,0,25.43-51.72c1.1-5.62,1.59-11.35,2.4-17.26h3.38c5.2,0,10.4,0,15.6,0,2.19,0,3.69-1,3.7-3.38s-1.36-3.39-3.63-3.4H271.49c-1.46-28.92-11.9-53.66-32.15-73.92S194.22,57.42,165.41,56V51.3c0-4.91,0-9.83,0-14.75,0-2.28-1.25-3.6-3.51-3.55-2.11,0-3.23,1.37-3.27,3.51,0,1.13,0,2.27,0,3.4V56C129.68,57.49,105,67.94,84.7,88.18s-30.77,45.14-32.2,73.95H33.2c-2.25,0-3.66,1-3.67,3.36s1.45,3.38,3.66,3.42c2.74.05,5.48,0,8.23,0h11c.12,1,.22,1.68.25,2.33a109.51,109.51,0,0,0,10.86,42,112.77,112.77,0,0,0,7.93,13.71h0A108.51,108.51,0,0,0,85.31,243.5l1.06,1,.61.57a109.58,109.58,0,0,0,71.62,29.83v16.76a29.49,29.49,0,0,0,0,3.12c.22,2.09,1.4,3.32,3.55,3.2s3.18-1.52,3.2-3.59c0-4.72,0-9.45,0-14.18v-5.31a110.13,110.13,0,0,0,55.25-17l0,.12c2.77-1.83,5.37-3.74,7.76-5.63A10,10,0,0,1,229.27,251.69ZM165.55,62.93c25.15,1.13,47.11,9.88,65.58,26.86,21,19.31,32,43.44,33.49,72.16h-31.3c-5.54-39.63-28-62.15-67.77-67.76Zm-7.14.2v31.5c-18,1.26-33.69,8-46.49,20.81S92.35,143.9,91.14,162H59.76C59.65,112.32,102.92,64.17,158.41,63.13Zm.11,204.42C114,268.8,61.26,229.09,59.58,169.19H90.7c5.59,39.53,28,62,67.82,67.62Zm6.89-55.69c0-3.87-1-5.35-3.48-5.3S158.6,208,158.6,212v17c-24.45.84-58.41-21.54-60.47-60H117c2.32,0,4-1,3.94-3.46s-1.68-3.36-4-3.34c-5.21,0-10.41,0-15.61,0h-3c.44-30.41,27.15-59.46,60.29-60.39v17.52c0,3.6,1,5.16,3.33,5.21s3.48-1.56,3.48-5.35V101.87c29.65.09,59.24,26.48,60.37,60.26H222c-4.73,0-9.46,0-14.19,0-3.3,0-4.85,1.17-4.77,3.47s1.58,3.31,4.68,3.32c5,0,10,0,15.05,0h3c-.78,30.69-27.06,59.14-60.34,60.36V211.86Zm.16,24.95c39.76-5.63,62.15-28.11,67.75-67.72h30.91c.09,51.34-45.36,98.36-98.66,98.67Z"/><path class="cls-3" d="M225.75,168.94h-3c-5,0-10,0-15.05,0-3.1,0-4.62-1.12-4.68-3.32s1.47-3.46,4.77-3.47c4.73,0,9.46,0,14.19,0h3.83c-1.13-33.78-30.72-60.17-60.37-60.26v17.25c0,3.79-1.06,5.4-3.48,5.35s-3.33-1.61-3.33-5.21V101.74c-33.14.93-59.85,30-60.29,60.39h3c5.2,0,10.4,0,15.61,0,2.33,0,4,.89,4,3.34s-1.62,3.46-3.94,3.46H98.13c2.06,38.5,36,60.88,60.47,60V212c0-4,.86-5.4,3.33-5.44s3.48,1.43,3.48,5.3V229.3C198.69,228.08,225,199.63,225.75,168.94ZM162,197.85a32.3,32.3,0,1,1,32.31-32.37A32.5,32.5,0,0,1,162,197.85Z"/><polygon class="cls-2" points="71.47 226.94 71.47 226.94 71.47 226.94 71.47 226.94"/><path class="cls-2" d="M235.83,246.11c2.58-2.36,5-4.81,7.35-7.34C241.41,240.7,238.92,243.26,235.83,246.11Z"/><path class="cls-2" d="M235.12,246.75l-.09.09Z"/><path class="cls-2" d="M244,237.92l-.43.47Z"/></svg>