<svg id="Layer_1" data-name="Layer 1" xmlns="http://www.w3.org/2000/svg" viewBox="0 0 324 331"><defs><style>.cls-1{fill:#074926;}</style></defs><path class="cls-1" d="M111,182.32h40.18a9.73,9.73,0,0,1,2.09.09c1.6.35,2.53,2,2.68,4.61s-.58,4.55-2.09,5.38a4.1,4.1,0,0,1-2.05.41q-40.81,0-81.62,0a4.25,4.25,0,0,1-1.87-.22c-1.59-.76-2.49-2.58-2.37-5.41s1.1-4.47,2.78-4.8a11.32,11.32,0,0,1,2.1-.07Z"/><path class="cls-1" d="M111,153.81H70.81a9.71,9.71,0,0,1-2.09-.09c-1.69-.37-2.64-2.07-2.73-4.88s.82-4.65,2.43-5.32a5.9,5.9,0,0,1,2.29-.2H151.9c2.62,0,4.12,1.93,4.15,5.21s-1.42,5.28-4.05,5.29Q131.5,153.83,111,153.81Z"/><path class="cls-1" d="M111.17,231.68H70.74a8,8,0,0,1-2.29-.18c-1.5-.42-2.33-2.06-2.45-4.55s.56-4.59,2.1-5.34a5.64,5.64,0,0,1,2.49-.42q40.43,0,80.85,0c.83,0,1.92-.23,2.43.51a11.17,11.17,0,0,1,2.06,5c.22,2.45-.84,4.38-2.45,4.8a8.86,8.86,0,0,1-2.3.16Z"/><path class="cls-1" d="M224.46,109.61Q191.13,76.38,157.91,43a29,29,0,0,0-21.6-8.91c-29.94.08-59.88,0-89.81,0-4.91,0-5.91,1-5.91,5.79q0,58,0,116a16,16,0,0,0,.09,2.3,3.51,3.51,0,0,0,3.83,3.35,3.45,3.45,0,0,0,3.65-3.25,24.45,24.45,0,0,0,.12-3.32q0-54.91,0-109.81V41.86h89.45a17.54,17.54,0,0,1,2.81.19c10,1.66,16.46,9.36,16.51,20,.07,14.54,0,29.07,0,43.61,0,4.31,1.16,5.43,5.5,5.43h42.85a27.52,27.52,0,0,1,5.74.57A34.16,34.16,0,0,1,223,109.57C223.5,109.57,224,109.59,224.46,109.61ZM165,103.29V61.84q20.76,20.75,41.46,41.45Z"/><path class="cls-1" d="M226.36,286.27c0,.9-.09,1.81-.14,2.76H48.29v-3.42q0-54.9,0-109.8a17.62,17.62,0,0,0-.22-3.57,3.38,3.38,0,0,0-3.52-2.79,3.45,3.45,0,0,0-3.75,2.82,12.54,12.54,0,0,0-.2,2.81q0,58,0,116c0,2.35.38,4.36,2.35,5.83H231.75a6.3,6.3,0,0,0,2.35-5.07q0-7.05,0-14.12h-7.73Z"/><path class="cls-1" d="M165,103.29h41.46Q185.77,82.62,165,61.84Z"/><path class="cls-1" d="M226.36,267.2v10.48h7.73V267.21Z"/><path class="cls-1" d="M282.9,227.51c-.78-9.1-2.54-17.93-6.45-26.06-4.37-9.11-10.86-14.82-20.05-16.35-3.37-.56-6.48-.26-9.32,2.15-1.54,1.31-3.22,2.43-4.86,3.58q-17.76,12.48-35.54,0c-2-1.43-4-3-6.08-4.33a9.17,9.17,0,0,0-4.23-1.65,23.45,23.45,0,0,0-12.89,3.5c-6.53,4-10.43,10.46-13.12,18-4.16,11.63-5.36,23.87-4.9,36.29.44,12,6.74,20.73,16.79,24,1.62.54,3.3.82,4.95,1.21h74.42a5,5,0,0,1,.9-.29c12.29-1.54,20.77-12,20.92-26C283.49,236.9,283.3,232.18,282.9,227.51Z"/><path class="cls-1" d="M224.42,258.46H190.68a17.25,17.25,0,0,1-10-2.61c-4.6-3.09-6.84-7.9-7-13.79-.23-10.76.61-21.41,4.09-31.58a31.26,31.26,0,0,1,5.9-10.69,16,16,0,0,1,11.7-5.5,2.91,2.91,0,0,1,1.5.68c3.11,2.13,6.08,4.59,9.33,6.4,13.94,7.78,27.49,6.61,40.58-2.71,1.76-1.25,3.47-2.58,5.26-3.77a3.24,3.24,0,0,1,1.92-.54c7.21.45,12,5,15.29,11.9,3.19,6.69,4.55,14,5.28,21.44.41,4.14.56,8.34.59,12.52.08,11-5.89,18.06-15.62,18.19-11.71.15-23.42,0-35.13,0Z"/><path class="cls-1" d="M257.57,155.28c-.06-21.47-15.23-38.65-34.12-38.66S189.23,134,189.33,155.43s15.46,38.78,34.18,38.6C242.5,193.84,257.63,176.63,257.57,155.28Z"/><path class="cls-1" d="M257.57,155.28c.06,21.35-15.07,38.56-34.06,38.75-18.72.18-34.08-17.17-34.18-38.6s15.19-38.82,34.12-38.81S257.51,133.81,257.57,155.28Zm-34.13,29.34c14.32,0,25.82-13,25.83-29.29S237.8,126,223.45,126s-25.82,13-25.82,29.28S209.11,184.6,223.44,184.62Z"/><path class="cls-1" d="M223.44,184.62c-14.33,0-25.81-13.05-25.81-29.3S209.11,126,223.45,126s25.84,13,25.82,29.29S237.76,184.63,223.44,184.62Z"/></svg>