<svg id="Layer_1" data-name="Layer 1" xmlns="http://www.w3.org/2000/svg" viewBox="0 0 324 331"><defs><style>.cls-1{fill:#074926;}</style></defs><path class="cls-1" d="M30,216.38c.58-2.13,1-4.3,1.75-6.38A32.93,32.93,0,0,1,71,188.52l2.17.53c.42-.73.86-1.44,1.25-2.18q14-26.68,28-53.36c.86-1.63.85-2.52-.63-3.83a32.88,32.88,0,0,1,23.33-57.59c13.88.87,24,8,29,20.87,5.15,13.22,2.31,25.3-7.55,35.61-.47.49-1,.91-1.63,1.44,16.37,27.28,32.66,54.43,48.63,81l17.88-1.82.25.67c.43-1.09.9-2.17,1.29-3.28q15.48-43.24,31-86.5c.69-1.92.71-3-1.3-4.34A33,33,0,1,1,293.5,83a8.38,8.38,0,0,0,.5,1.4v8.25c-.69,2.45-1.24,5-2.11,7.34a32.7,32.7,0,0,1-34.83,21.2c-2.15-.29-2.23,1-2.66,2.21q-14.73,41.19-29.44,82.4c-.86,2.42-2.76,5.08-2.28,7.2.45,2,3.46,3.35,5.32,5a33,33,0,1,1-54.79,27.57,32.22,32.22,0,0,1,9.8-26.63c1-1,1.47-1.74.58-3.21q-23.81-39.48-47.5-79a9.52,9.52,0,0,0-.67-.82,33.81,33.81,0,0,1-22.13.52L83.13,194c2,2.16,4.17,4.14,5.93,6.42A32.69,32.69,0,0,1,90.92,238a32.93,32.93,0,0,1-60.45-12.26,5.84,5.84,0,0,0-.47-1.14ZM260.63,110.45c11.6.54,21.77-9.3,22.34-21.6.54-11.6-9.3-21.77-21.6-22.34C249.77,66,239.6,75.81,239,88.12,238.49,99.71,248.33,109.88,260.63,110.45ZM85,220.54a22,22,0,1,0-22,22A22.26,22.26,0,0,0,85,220.54ZM206,264.44a22,22,0,1,0-22-22A22.12,22.12,0,0,0,206,264.44ZM145.48,105a22,22,0,1,0-22,22A22.26,22.26,0,0,0,145.48,105Z"/><path class="cls-1" d="M260.74,104c-8.67-.4-15.61-7.57-15.23-15.75.4-8.67,7.58-15.61,15.75-15.23,8.67.4,15.61,7.58,15.23,15.75C276.09,97.42,268.91,104.35,260.74,104Z"/><path class="cls-1" d="M79,220.53a16,16,0,1,1-16-16.05A16.23,16.23,0,0,1,79,220.53Z"/><path class="cls-1" d="M206,258.48a16,16,0,1,1,.05-32,16,16,0,0,1-.05,32Z"/><path class="cls-1" d="M137.83,105a14.3,14.3,0,1,1-14.3-14.34A14.5,14.5,0,0,1,137.83,105Z"/></svg>