<svg id="Layer_1" data-name="Layer 1" xmlns="http://www.w3.org/2000/svg" viewBox="0 0 327 271"><defs><style>.cls-1{fill:#fdfdfd;}.cls-2{fill:#ececec;}.cls-3{fill:#3d3938;}.cls-4{fill:#ecad6b;}.cls-5{fill:#6c7d86;}.cls-6{fill:#4c4846;}.cls-7{fill:#c5c5c5;}.cls-8{fill:#d9d9d9;}.cls-9{fill:#dc995e;}.cls-10{fill:#566a75;}.cls-11{fill:#b6b6b6;}.cls-12{fill:#d08b54;}.cls-13{fill:#0e5229;opacity:0.07;}.cls-14{fill:#d9985d;}.cls-15{fill:#d6955b;}.cls-16{fill:#cf8b53;}.cls-17{fill:#cd8952;}.cls-18{fill:#c4c4c4;}.cls-19{fill:#d8d8d8;}</style></defs><path d="M251.6,192.25c2.38.44,3.3,1.89,3.29,4.26-.07,10.79,0,21.58-.08,32.37,0,.87-.19,1.62,1.13,1.49,6.68-.65,12,6.55,6.95,14.46-1.82,2.87-4.63,4.21-7.71,5.17h-85a3.44,3.44,0,0,1-2.75-3.71c.79-2.59,1.83-3.46,4.39-3.65,1-.08,2.09,0,3.13,0h75.59a11.37,11.37,0,0,0,4-.36c2-.72,2.77-2.12,2.14-4a3.49,3.49,0,0,0-2.57-.52q-47.73,0-95.47,0c-5,0-10,0-15,.08-1,0-2.35-.26-2.69,1s.6,2.39,1.72,3.11a6.25,6.25,0,0,0,3.46.7c3,0,6-.09,8.94.06,2.58.12,3.61,1,4.44,3.59a3.44,3.44,0,0,1-2.75,3.77H72.68c0-.06-.07-.17-.12-.18-8.89-1.7-11.49-9-10.07-16.27,3.2-16.42,6.38-32.84,9.84-49.2,1.74-8.2,7-13.6,14.92-16.35q16.73-5.82,33.46-11.56c1.47-.5,1.92-1.33,2.12-2.91.53-4.31-.89-6.89-4.68-9.49-10.09-6.91-15.94-16.84-17.78-29-.22-1.43-.67-1.88-2.19-2-9-.59-14.89-9.4-11.46-17.06A5.85,5.85,0,0,0,87,93.61c.18-7.51-.44-15,.45-22.54a57.49,57.49,0,0,1,7-21c1-1.9,2.59-2.58,4.67-1.71,1.9.69,2.59,1.84,2.19,3.7a10.46,10.46,0,0,1-1.13,2.67,51.79,51.79,0,0,0-5.8,24.74c0,2.31,0,4.61,0,6.92,0,1.26.45,1.6,1.78,1.47,2.32-.22,3.82-1,4.43-3.49a11.5,11.5,0,0,1,2.66-4.6c4.54-4.91,10-6.79,16.73-5.85a53.63,53.63,0,0,0,36.29-7.23,41.73,41.73,0,0,0,4.35-3.14,18.05,18.05,0,0,1,2.55-1.8c3.61-2,7.64-1.45,9.9,2,2.76,4.17,6.25,6.8,11.24,7.67,3,.52,4.33,2.57,4.42,5.64.09,2.75,0,5.51.05,8.27,0,1.64,3.08,3.29,4.5,2.5.56-.31.51-.88.5-1.38-.22-8.19.6-16.4-.48-24.56-.91-6.85-4-12.4-10.08-16.06-2.77-1.66-4.41-4.58-6.95-6.58a51.52,51.52,0,0,0-40.63-10c-9.22,1.29-17.11,5.39-24.12,11.36a10.41,10.41,0,0,1-2.71,1.94c-1.52.62-2.89.56-3.93-.92-1.39-3.11-1.24-3.76,1.4-6.13C128.37,15.58,164.17,16.3,184.57,37a39.39,39.39,0,0,0,5.06,4.32c6.81,5,10.05,12.06,11,20.19,1.13,10.32.27,20.7.47,31.05a15.24,15.24,0,0,0,.71,4.57c2.42,7.45-3.44,15.44-11.74,15.91-1.64.1-2.08.6-2.32,2.08-2,12.91-8.62,23-19.45,30.21a3.11,3.11,0,0,0-1.66,3.22c.21,2.28-.81,5,.43,6.77s4.13,1.69,6.23,2.6a9.61,9.61,0,0,0,3.93.63q33.76,0,67.54,0c3.2,0,6.07.61,8.19,3.22a8.5,8.5,0,0,1,2,5.56c0,4,0,8.05,0,12.08,0,2.3-1,3.65-3.28,4-1.47.72-2.4-.13-3.2-1.18a6.5,6.5,0,0,1-1.09-4c0-3.2,0-6.4,0-9.61,0-1.67-.69-2.48-2.4-2.42-.81,0-1.63,0-2.45,0h-82a26.57,26.57,0,0,1-2.68-.06c-1.49.09-3,0-4.47.06-2.38.08-2.8.51-2.94,2.94,0,.59,0,1.19,0,1.79v53.84c0,.53,0,1.05,0,1.57.11,2.71.61,3.21,3.37,3.27,1.49,0,3,0,4.47,0,25.45-.08,50.91,0,76.37,0,3.12,0,6.25,0,9.38,0s3.35-.37,3.37-3.35c0-9.3,0-18.61,0-27.91a8,8,0,0,1,.86-4.54C249,192.56,249.87,191.46,251.6,192.25Z"/><path class="cls-1" d="M156.77,250c1.07-.81,2.11-1.65,2.29-3.11,1.48-1.2,3.23-.42,4.83-.68,1.37.06,2.8-.32,4,.68a4.81,4.81,0,0,0,2.29,3.11Z"/><path class="cls-2" d="M251.6,192.25c-2.8.76-3.44,1.58-3.44,4.59q0,15.19,0,30.39c0,2.74-.39,3.12-3.11,3.12q-42.79,0-85.59,0c-.45,0-.89,0-1.34-.07-1.44-.86-1.15-2.32-1.15-3.61,0-8.64,0-17.27,0-25.9q0-15.86,0-31.71c0-1.25-.18-2.55.71-3.63.74-.06,1.48-.15,2.22-.15h84.44c3.6,0,3.83.23,3.84,3.77s0,6.85,0,10.27c0,2.62.78,3.46,3.43,4.12Z"/><path class="cls-3" d="M104.82,41.56c2.32,1.38,4.1.5,6-1.14A46.47,46.47,0,0,1,135.3,28.65c-.12,1.22-1.22,1.39-2,1.81-13.55,7.07-22.76,17.8-27.33,32.41a62.42,62.42,0,0,0-2.37,17.2,17.61,17.61,0,0,0-3.21,6.52,1.66,1.66,0,0,1-2,1.51,5.76,5.76,0,0,0-1.55.11c-3.07.63-3,.64-3.08-2.44-.13-8.1-.06-16.16,2.69-23.93a56.07,56.07,0,0,1,3.79-8.53c1.14-2,.81-3.67-1.12-5C101.09,46.17,102.46,43.45,104.82,41.56Z"/><path class="cls-4" d="M114.24,81.3c2.75-1,5.46,0,8.16.25,16,1.23,30.43-2.55,43.08-12.56,1.13-.9,1.67-1.2,2.62.31a18.5,18.5,0,0,0,12,8.57,1.57,1.57,0,0,1,1.45,1.81c0,10.89.38,21.77-.26,32.64-.92,15.83-14.93,30.76-30.75,33-4.67.66-9.32.88-13.94-.4-10.85-4.64-17.35-13.12-21-24a41.57,41.57,0,0,1-2-13.63c0-7.58,0-15.17,0-22.76C113.66,83.42,113.49,82.27,114.24,81.3Z"/><path class="cls-5" d="M89.23,174.49l33.37-11.72a17.5,17.5,0,0,0,2.59,7.64c3.18,4.62,8.07,5.87,13.13,6.64,4.66.7,4.68.59,4.68,5.26v44a17.08,17.08,0,0,0,.08,2.68c.16.92,0,1.27-1,1.38-7.5.76-10.12,4.64-8.24,12.08a3.57,3.57,0,0,1,0,.83h-8c-8.12,0-16.24,0-24.35,0-1.59,0-2-.45-2-2,.08-9.23,0-18.47,0-27.7,0-.6,0-1.2,0-1.79-.12-2.12-1.39-3.45-3.3-3.47a3.3,3.3,0,0,0-3.39,3.38c-.07,1.26-.06,2.53-.09,3.79-3.84.54-7.71.09-11.56.24-.88,0-1.2-.43-1.19-1.23a16.47,16.47,0,0,1,.38-2.88c2-10.09,3.65-20.23,5.58-30.32C86.43,178.81,86.92,176.19,89.23,174.49Z"/><path class="cls-6" d="M103.58,80.07c-1-1.43-.54-3-.43-4.53.71-9.92,3.47-19.18,9.19-27.43A54.61,54.61,0,0,1,132.6,30.17c.92-.46,1.8-1,2.7-1.52,16.21-2.71,30.72.94,43.2,11.78,2.62,2.27,4.94,4.82,7.81,6.89,4.72,3.41,6.79,8.62,7.53,14.22,1.14,8.67.29,17.41.51,26.12,0,.92-.16,1.48-1.26,1a9.63,9.63,0,0,0-1.52-.37c-3.42-.77-3.42-.77-3.42-4.45,0-2.31,0-4.62,0-6.93-.06-2.68-1.34-4.54-3.92-4.94a15.89,15.89,0,0,1-11.69-8c-2-3.28-6.22-3.82-9.46-1.56-2.62,1.83-5,4-7.82,5.54a53.73,53.73,0,0,1-21.52,6.82,72.82,72.82,0,0,1-15.55-.47C112.34,73.62,107.56,75.91,103.58,80.07Z"/><path class="cls-7" d="M167.9,246.89l-4-.08a8,8,0,0,1-6.72-6.6c-.48-2.26.16-3,2.49-3h96.07a3.38,3.38,0,0,1,1.75.18c1.28,2.31-.42,5.26-3.38,5.76a14.27,14.27,0,0,1-2.45.08H172.52C169.36,243.29,168.5,244,167.9,246.89Z"/><path class="cls-8" d="M157.66,165.43q0,30.9,0,61.81a5.07,5.07,0,0,0,.44,3c-1.93,0-3.87,0-5.8.08s-2.57-.89-2.58-2.6V169c0-3.36.35-3.72,3.71-3.71C154.84,165.29,156.25,165.38,157.66,165.43Z"/><path class="cls-9" d="M114.24,81.3q0,13.29,0,26.58a40.71,40.71,0,0,0,11,28.52,40,40,0,0,0,9.66,7.45c.57.33,1.27.45,1.64,1.08a35.57,35.57,0,0,1-23.06-14.35,34.42,34.42,0,0,1-6.93-20.13c-.17-6.54-.14-13.09-.08-19.64C106.61,85.74,109.63,82.12,114.24,81.3Z"/><path class="cls-9" d="M79,222.76c4.16,0,8.33,0,12.5-.12,1.08,0,1.39.36,1.38,1.41q-.06,8.94,0,17.87c0,1.07-.32,1.41-1.39,1.39-4.31-.07-8.63-.07-13-.09-2.16-1.18-2.26-3.34-2.38-5.37-.19-3.36.84-6.58,1.4-9.84C77.82,226.23,77.66,224.28,79,222.76Z"/><path class="cls-10" d="M89.23,174.49c-2.61,4.07-3,8.77-3.8,13.34-1.58,8.71-3.11,17.43-4.77,26.13-.28,1.44.14,1.63,1.37,1.61,3.57,0,7.13,0,10.7,0-.35.75-1,.44-1.57.44-5.42,0-10.85-.06-16.28,0-1.76,0-2-.68-1.69-2.13,1.93-9.45,3.72-18.93,5.79-28.34C80.21,180,83.78,176.29,89.23,174.49Z"/><path class="cls-9" d="M138.56,152.44c7.18.47,14.25.08,21.33-2.77,0,2.77,0,5.26,0,7.74,0,1.09-.56,1.19-1.4,1.18-2.16,0-4.31-.05-6.47,0-5.3.13-8.76,3.52-9,8.78-.17,3.53-.17,3.54-3.78,3a14.22,14.22,0,0,1-1.7-.46c-1-1.26-1-2.8-1.07-4.25-.22-3.71-.13-7.42,0-11.13C136.46,153.28,136.56,151.84,138.56,152.44Z"/><path class="cls-11" d="M257.48,237.45l-96.53,0c-3.53,0-4.09.85-2.71,4.2,1.07,2.58,3.45,3.77,5.65,5.13l-4.83.08c-.53-2.78-1.44-3.58-4.16-3.59-3.35,0-6.71,0-10.06,0a4.75,4.75,0,0,1-4.77-3.35c-.7-1.91-.08-2.85,2-2.86,5.89,0,11.78,0,17.66,0q47.51,0,95,0C255.63,237.06,256.65,236.68,257.48,237.45Z"/><path class="cls-12" d="M79,222.76c-.69,4.06-1.39,8.13-2.07,12.2a10.68,10.68,0,0,0,1.61,8.26,36.5,36.5,0,0,1-4.44-.05c-3.79-.5-5.72-2.89-5.16-6.66.63-4.25,1.61-8.44,2.36-12.67.17-1,.59-1.21,1.47-1.19C74.8,222.72,76.87,222.73,79,222.76Z"/><path class="cls-13" d="M138.56,152.44c-1.36,0-1.49.8-1.48,1.9.06,5.21-.15,10.42.46,15.6-5.61-.59-8.06-3.26-8.07-8.78,0-3.19,0-6.37,0-9.56,0-.77-.12-1.44,1.16-1.08C133.24,151.27,135.91,151.82,138.56,152.44Z"/><path class="cls-14" d="M92.79,99.22c1-3,3.36-4.49,6.72-4.3.5,2,.1,4.1.22,6.16a1.2,1.2,0,0,1-.92,1.32c-1.52.53-5.34-.91-6.11-2.34A.83.83,0,0,1,92.79,99.22Z"/><path class="cls-15" d="M188.54,94.93c3.32-.24,5.74,1.3,6.74,4.28-.65,1.74-4.51,3.63-6.21,3.06a1,1,0,0,1-.75-1.18C188.43,99,188,97,188.54,94.93Z"/><path class="cls-16" d="M188.54,94.93c0,1.91,0,3.82,0,5.73,0,.59,0,1.4.87,1.17,2.07-.58,4.39-.68,5.86-2.62,1,3.61-2.53,7.75-6.13,7.23-.5-.08-.89-.19-.87-.75C188.4,102.1,187.85,98.5,188.54,94.93Z"/><path class="cls-17" d="M92.79,99.22c1.19,2.31,3.49,2.38,5.62,2.7,1,.16,1.09-.7,1.09-1.49,0-1.83,0-3.67,0-5.51.78,3.56.16,7.16.31,10.74,0,.55-.33.75-.85.77C95.72,106.55,91.18,103.05,92.79,99.22Z"/><path d="M210,197.77a11.07,11.07,0,1,1-11.06-11A11,11,0,0,1,210,197.77Z"/><path class="cls-18" d="M202,200.82a3.87,3.87,0,0,1-5,.88,4,4,0,0,1-2.35-4.15,3.83,3.83,0,0,1,3.27-3.86C198.57,196.47,200.36,198.61,202,200.82Z"/><path class="cls-19" d="M202,200.82c-2.47-1.74-4.27-3.87-4.07-7.13a3.89,3.89,0,0,1,4.87,2.1A3.8,3.8,0,0,1,202,200.82Z"/></svg>