<svg id="Layer_1" data-name="Layer 1" xmlns="http://www.w3.org/2000/svg" viewBox="0 0 327 271"><defs><style>.cls-1{fill:#fefefe;}.cls-2{fill:#010101;}.cls-3{fill:#fdfdfd;}</style></defs><path d="M45,196.57c1.14-1.81,2.79-2.37,4.9-2.35,7.6.08,15.2,0,22.81.08,1.79,0,2.36-.33,2.37-2.26q.35-63,.82-125.91c0-.52,0-1,0-1.56.11-2.91,1.57-4.37,4.47-4.39,4.25,0,8.5,0,12.75,0q38.24,0,76.48,0a2.58,2.58,0,0,0,2.92-1.88,53.11,53.11,0,0,1,50.41-33c30.58.92,54.15,28,50.73,58.39a52.61,52.61,0,0,1-53.12,47,2,2,0,0,0-2.09,2q.07,40.49,0,81a29.16,29.16,0,0,1-23.78,29.14,47.14,47.14,0,0,1-9.57.53H75.56c-15.48,0-26.81-9.13-30.12-24.25-.06-.3-.11-.57-.44-.69Z"/><path class="cls-1" d="M172.89,99.11H139.82a15,15,0,0,0-2,0,3.71,3.71,0,0,0-.09,7.39,13.46,13.46,0,0,0,2,0q17.78,0,35.55,0c1.61,0,2.49.43,3.49,2.44,4.48,9,12.21,15.93,21.89,18.54,8.57,2.31,10.38,1.08,10.38,4,0,27.5,0,55-.06,82.5a21.74,21.74,0,0,1-43.22,3.49,48.32,48.32,0,0,1-.27-7.23c-.06-3.75-.12-7.53,0-11.29.09-3.48-1-4.74-4.34-4.76-4.25,0-8.5,0-12.75,0-21.91,0-43.82,0-65.73.05-1.8,0-2.18-.51-2.16-2.22q.48-61.15.82-122.3c0-1.72.42-2.19,2.19-2.19q41,.09,82.05,0c3.11,0,2.14.77-.78,12.24-1.72,6.73,1.61,12.88,5.95,18.31C172.89,98.37,172.84,98.61,172.89,99.11Z"/><path class="cls-1" d="M266.35,82.69a45.25,45.25,0,1,1-45.24-49.82A45.39,45.39,0,0,1,266.35,82.69Z"/><path class="cls-1" d="M169.84,236h-1.75q-46.29,0-92.59,0a23.5,23.5,0,0,1-16.26-6.18c-8.93-8.56-6.55-17.94-6.79-27.14,0-.77.36-1.06,1.1-1,.52,0,1,0,1.56,0q51.18,0,102.36,0c2,0,2.62.39,2.59,2.5-.07,5.13-.51,10.3.44,15.39A29.07,29.07,0,0,0,169.84,236Z"/><path class="cls-2" d="M162.86,171.51c-8,0-16.08,0-24.12,0-1.9,0-3.37-.62-4.1-2.44-1-2.45.79-4.89,3.7-5,7.48-.27,15,.77,22.4-2.08s15.35-1.57,22.64,1.67c1.27.56,2.58.32,3.87.39,2.49.14,4.09,1.68,4,3.86s-1.66,3.54-4,3.56c-5.07,0-10.13,0-15.19,0Z"/><path d="M162.89,139h-23a18.46,18.46,0,0,1-2.23-.07,3.55,3.55,0,0,1-3.23-3.84,3.49,3.49,0,0,1,3.44-3.41c7.4-.31,14.86,1.05,22.06-3.59,6.55-4.24,15.2-4,20.56,1.63,2.19,2.32,4.47,1.86,6.73,1.93,2.42.07,4,1.43,4,3.54s-1.5,3.7-4,3.8c-1.41.06-2.83,0-4.24,0Z"/><path d="M126.11,103.17a11.87,11.87,0,1,1-11.7-11.6A11.72,11.72,0,0,1,126.11,103.17Z"/><path d="M126.11,135.34a11.71,11.71,0,0,1-11.78,11.52c-6.53,0-12-5.32-12-11.63a11.82,11.82,0,0,1,12-11.4A11.67,11.67,0,0,1,126.11,135.34Z"/><path d="M126.11,167.61a11.69,11.69,0,0,1-11.8,11.49c-6.55,0-12-5.33-11.93-11.63a11.75,11.75,0,0,1,12-11.35A11.6,11.6,0,0,1,126.11,167.61Z"/><path d="M205.51,91.72c-.08-3.56,1.17-5.14,3.4-5.25s3.61,1.23,3.91,3.89c.5,4.52,3.24,7.46,7.39,7.94A8.2,8.2,0,0,0,228.87,93a8.35,8.35,0,0,0-3.19-9.85c-1.76-1.17-3.76-1.3-5.77-1.46-10.22-.78-17.79-11.2-13.06-22.53A14,14,0,0,1,214.42,52c2.21-1,2.92-2,2.75-4.37-.18-2.6,1.35-4.11,3.61-4.11s3.78,1.5,3.62,4.11c-.14,2.26.57,3.2,2.77,4.08,5.91,2.35,9,7.08,9.64,13.37.27,2.62-1.14,4.47-3.36,4.69s-3.8-1.36-4.09-4c-.55-5.08-4.11-8.19-9-7.86a8.33,8.33,0,0,0-7.55,8.26c0,4.57,3.63,8.07,8.51,8.28,8.2.36,14.16,5.69,15.41,13.76,1.1,7.12-3.41,14.22-10.77,16.8-1.19.41-1.67.93-1.53,2.19a10.85,10.85,0,0,1,0,2.67A3.47,3.47,0,0,1,220.7,113c-2-.08-3.63-1.19-3.43-3.07.37-3.55-1.25-5-4.21-6.51A13.93,13.93,0,0,1,205.51,91.72Z"/><path class="cls-3" d="M114.31,107.13a4.06,4.06,0,1,1-.06-8.09,4.06,4.06,0,1,1,.06,8.09Z"/><path class="cls-3" d="M114.35,139.36a4.06,4.06,0,1,1-.14-8.09,4.37,4.37,0,0,1,4.53,4A4.25,4.25,0,0,1,114.35,139.36Z"/><path class="cls-3" d="M114.38,171.61a4.22,4.22,0,0,1-4.53-3.93,4.27,4.27,0,0,1,4.33-4.17,4.41,4.41,0,0,1,4.56,4A4.25,4.25,0,0,1,114.38,171.61Z"/></svg>