<svg id="Layer_1" data-name="Layer 1" xmlns="http://www.w3.org/2000/svg" viewBox="0 0 327 271"><defs><style>.cls-1{fill:#f7f9fe;}.cls-2{fill:#696e81;}.cls-3{fill:#c8eefe;}.cls-4{fill:#5b6172;}.cls-5{fill:#aee5f9;}.cls-6{fill:#010101;}.cls-7{fill:#ef3a5a;}</style></defs><path d="M59.71,125.59V68.4c0-10.07,5.32-16,15.32-17,1.23-.12,1-.75,1-1.46,0-4.91,0-9.81,0-14.71,0-2.76.73-3.48,3.5-3.48q84,0,167.91,0c2.74,0,3.46.74,3.46,3.52,0,4.84,0,9.67,0,14.51,0,1.17.17,1.58,1.5,1.64a15.33,15.33,0,0,1,14.84,15.41q.08,58.83,0,117.65A15.41,15.41,0,0,1,251.51,200q-30.34.06-60.67,0c-1.76,0-2.08.49-2.05,2.12.1,5.79.11,11.58,0,17.36,0,1.61.48,1.87,1.93,1.84,4.83-.09,9.67,0,14.5,0,2.39,0,3.21.81,3.23,3.15q0,5.93,0,11.84c0,2.11-.87,3-3,3q-42,0-84,0c-2,0-2.91-.85-2.93-2.81,0-4.09,0-8.17,0-12.26,0-2.06.9-2.88,3.06-2.89,5,0,9.95-.05,14.91,0,1.36,0,1.68-.36,1.66-1.68-.07-5.92-.09-11.85,0-17.77,0-1.55-.4-1.87-1.9-1.86q-29.93.07-59.85,0c-10.23,0-16.74-6.48-16.75-16.66Z"/><path class="cls-1" d="M163.5,169q-40.25,0-80.49,0c-1.7,0-2.1-.39-2.09-2.08q.08-64.14,0-128.29c0-1.69.39-2.09,2.09-2.08q80.49.07,161,0c1.7,0,2.1.39,2.09,2.08q-.07,64.14,0,128.29c0,1.69-.39,2.09-2.08,2.08Q203.75,169,163.5,169Z"/><path class="cls-2" d="M163.61,173.9q48.19,0,96.4-.05c2,0,2.53.56,2.41,2.49-.17,2.78,0,5.58-.06,8.37a10.55,10.55,0,0,1-10.44,10.42c-5.17.07-10.35,0-15.52,0H76.07c-5.88,0-10.11-3.07-11.16-8.45-.77-4-.17-8-.28-12,0-.64.4-.78.94-.77s1.09,0,1.64,0Z"/><path class="cls-3" d="M73.6,168.93c-2.58,0-5.17,0-7.75.09-1,0-1.39-.25-1.24-1.24a4.14,4.14,0,0,0,0-.61q0-49.87,0-99.75c0-5.13,2.76-9.15,7.28-10.65a6.81,6.81,0,0,1,1.2-.18c1,0,1,.8,1.08,1.43a14.69,14.69,0,0,1,.09,2.65q0,52.17,0,104.34C74.26,166.34,74.6,167.76,73.6,168.93Z"/><path class="cls-3" d="M253.89,56.59a10.36,10.36,0,0,1,8.46,9.62c0,.67,0,1.36,0,2q0,49.25.05,98.51c0,1.86-.46,2.43-2.31,2.28-2.22-.18-4.48-.08-6.72-.11-1-1.1-.66-2.45-.66-3.71q0-41.57,0-83.11c0-7.56,0-15.11,0-22.67C252.76,58.43,252.26,57,253.89,56.59Z"/><path class="cls-4" d="M163.32,221.3c-6.12,0-12.25-.06-18.37,0-1.56,0-1.94-.44-1.92-2,.09-5.85.06-11.7,0-17.56,0-1.22.18-1.81,1.64-1.8q18.78.09,37.57,0c1.36,0,1.72.43,1.7,1.74q-.09,9,0,18c0,1.29-.41,1.6-1.63,1.59C176,221.27,169.65,221.3,163.32,221.3Z"/><path class="cls-2" d="M163.49,226.2c12.66,0,25.31,0,38,0,1.71,0,2.28.43,2.12,2.14a39.88,39.88,0,0,0,0,4.89c0,.87-.29,1.27-1.18,1.18-.33,0-.68,0-1,0q-37.84,0-75.71,0c-1.81,0-2.44-.44-2.21-2.25s-.84-4.52.46-5.64c1.12-.95,3.63-.32,5.52-.32Q146.45,226.18,163.49,226.2Z"/><path class="cls-5" d="M73.6,168.93q0-55,0-110.06c0-.77.31-1.66-.49-2.28,3-.77,3-.77,3,2.13q0,53.93,0,107.84C76.11,168.61,75.66,169.43,73.6,168.93Z"/><path class="cls-5" d="M253.89,56.59c-.8.62-.49,1.51-.49,2.28q0,55,0,110.06c-2.06.5-2.51-.32-2.51-2.37q.1-53.92.05-107.84C250.94,55.82,250.94,55.82,253.89,56.59Z"/><path class="cls-6" d="M176.78,92.29H224c.61,0,1.22,0,1.83,0A2.24,2.24,0,0,1,228,94.56a2.27,2.27,0,0,1-1.93,2.51,8,8,0,0,1-1.83.12H128.87a5.4,5.4,0,0,1-2.22-.24,2.28,2.28,0,0,1-1.53-2.4,2.22,2.22,0,0,1,2-2.2,15.4,15.4,0,0,1,2-.06Z"/><path d="M176.72,61.75H128.14c-2,0-3.14-1-3-2.5.13-1.76,1.26-2.44,2.92-2.4h97.37c1.6.06,2.62.87,2.6,2.5a2.32,2.32,0,0,1-2.51,2.39c-.54,0-1.08,0-1.63,0Z"/><path class="cls-6" d="M157.16,105.36h27.78a12.49,12.49,0,0,1,1.84.06,2.23,2.23,0,0,1,2,2.21,2.29,2.29,0,0,1-1.54,2.39,6,6,0,0,1-2.42.23H129.07a13.68,13.68,0,0,1-1.43,0c-1.55-.17-2.61-1-2.51-2.62a2.3,2.3,0,0,1,2.62-2.26h29.41Z"/><path d="M156.92,74.82H129a9.29,9.29,0,0,1-1.83,0,2.44,2.44,0,0,1,.07-4.81,8.84,8.84,0,0,1,1.63,0h56.3c.41,0,.82,0,1.23,0a2.44,2.44,0,1,1-.07,4.88c-1.56,0-3.13,0-4.69,0Z"/><path d="M108,74.82c-2,0-4.07,0-6.11,0S99,73.94,99,72q-.06-6.1,0-12.22c0-2,.87-2.87,2.84-2.89q6.1-.06,12.22,0c2,0,2.88.87,2.89,2.84q.06,6.11,0,12.22c0,2-.88,2.85-2.85,2.89S110,74.82,108,74.82Z"/><path d="M98.94,101.76c0-2,0-4.07,0-6.11s.9-2.82,2.89-2.84c4.08,0,8.15,0,12.22,0,2,0,2.83.9,2.85,2.89q0,6.12,0,12.23c0,2-.9,2.82-2.89,2.84q-6.11,0-12.22,0c-2,0-2.81-.91-2.84-2.9S98.94,103.8,98.94,101.76Z"/><path class="cls-7" d="M112,65.79c0,4.13,0,4.13-4.09,4.13s-4.08,0-4.08-4.14,0-4,4-4h.2C112,61.75,112,61.75,112,65.79Z"/><path class="cls-7" d="M108,105.87c-4.12,0-4.12,0-4.12-4.1s0-4.07,4.15-4.07,4,0,4,4v.21C112,105.87,112,105.87,108,105.87Z"/><path class="cls-6" d="M157.16,141h27.78a12.49,12.49,0,0,1,1.84.06,2.24,2.24,0,0,1,2,2.21,2.29,2.29,0,0,1-1.54,2.39,5.86,5.86,0,0,1-2.42.24H129.07a11.4,11.4,0,0,1-1.43,0c-1.55-.17-2.61-1-2.51-2.61a2.31,2.31,0,0,1,2.62-2.27h29.41Z"/><path d="M98.94,137.36c0-2,0-4.07,0-6.11s.9-2.82,2.89-2.84q6.12,0,12.22,0c2,0,2.83.9,2.85,2.89q0,6.1,0,12.22c0,2-.9,2.82-2.89,2.84-4.07,0-8.15,0-12.22,0-2,0-2.81-.9-2.84-2.89S98.94,139.4,98.94,137.36Z"/><path class="cls-7" d="M108,141.48c-4.12,0-4.12,0-4.12-4.1s0-4.07,4.15-4.07,4,0,4,4v.2C112,141.48,112,141.48,108,141.48Z"/></svg>