<svg id="Layer_1" data-name="Layer 1" xmlns="http://www.w3.org/2000/svg" viewBox="0 0 327 271"><defs><style>.cls-1{fill:#56788a;}.cls-2{fill:#4dd3f6;}</style></defs><path class="cls-1" d="M148.07,252c-1.83-2.08-1.67-3,.75-4.33,25.39-13.64,29.62-46,8.58-65.58-3.15-2.92-2.68-5.68,1.27-7.2,26.23-10.08,52.52-20,78.67-30.31,7.29-2.87,14-1.65,20.64,1.18,23.07,9.86,29.29,39.94,12.23,58.29a10.41,10.41,0,0,1-3.8,2.41c-5.37,2.24-10.75,4.44-16.13,6.65-27.93,11.49-55.89,22.92-83.77,34.54A81.34,81.34,0,0,1,153.07,252Z"/><path class="cls-2" d="M221.77,125.19c0-4.34,0-4.32-4-5.65a20.94,20.94,0,0,1-8.16-4.76,7.26,7.26,0,0,1,9.51-11c4.14,3.32,8.69,3.13,13.31,1.53,2.36-.81,3.5-2.81,3.56-5.32a6.35,6.35,0,0,0-4-6.32c-4-1.79-8.13-3.29-12.11-5.11-13.78-6.33-16.71-24.68-5.58-34.66a19,19,0,0,1,6.16-3.76,1.69,1.69,0,0,0,1.32-2c-.07-2.43-.06-4.86,0-7.28a7.27,7.27,0,1,1,14.54,0,43.43,43.43,0,0,1,0,5.23c-.18,1.82.35,2.61,2.25,3A20,20,0,0,1,248,53.84c3.38,2.95,3.88,7.31,1.21,10.5s-7,3.46-10.53.68-9.75-3.12-13.54-.92a5.55,5.55,0,0,0-3,5.44,6.57,6.57,0,0,0,4.22,6c4,1.75,8.13,3.28,12.1,5.12a21.18,21.18,0,0,1,10.22,28.07,19.29,19.29,0,0,1-10.62,10,2.29,2.29,0,0,0-1.72,2.65c.13,2.27.08,4.55,0,6.82a7.27,7.27,0,1,1-14.54,0C221.75,127.17,221.77,126.18,221.77,125.19Z"/><path class="cls-1" d="M183,141.14C168.15,104.42,160.66,66,156.32,26.83c-.47-4.28-2.11-6.64-5.64-7.56-3.25-.85-6,.45-8.38,3.94-2.91,4.34-5.86,8.65-8.66,13-.91,1.43-1.5,1.74-3,.67-4.51-3.18-9.13-6.23-13.77-9.22s-9.95-1-11.43,4.43c-.4,1.46-.69,2.94-1.06,4.41L100.72,50.9c-4.26-2.84-8.28-5.54-12.32-8.2-5.55-3.65-10.64-1.65-12.25,4.78-1.49,5.93-3,11.86-4.54,18-4.44-3-8.69-5.84-13-8.63a7.22,7.22,0,0,0-9.38.7c-1,1-1.38,2.29-2.17,3.36v5.92c.46.16.41.57.44.93q1.68,16.85,4.54,33.53c4.17,24.49,9.77,48.62,18.23,72,6,16.56,13.19,32.53,23.74,46.74,10.11,13.62,23.93,19,40.6,16.93,11.72-1.47,21-11.8,21.59-23.48a25.58,25.58,0,0,0-18.93-26.15,42.47,42.47,0,0,0-9.92-.89c-5.25-.12-8.65-4.71-7.12-9.46.88-2.71,2.9-4.09,5.42-5Q152,161.85,178.33,151.7C183.24,149.81,184.91,145.94,183,141.14ZM83.58,107.81a7.33,7.33,0,0,1,4.59-8.21c7.54-3.07,15.11-6.07,22.67-9.09,4.34-1.74,8.68-3.49,13-5.19s8.46-.08,10,3.79-.29,7.93-4.6,9.67c-11.75,4.74-23.53,9.41-35.3,14.1a7.26,7.26,0,0,1-10.42-5.07Zm53.74,19.78c-12.3,5-24.62,9.93-37,14.75a7.23,7.23,0,0,1-5.22-13.47q18.34-7.47,36.76-14.7c4.82-1.87,9.84,1.76,9.81,7.32A6.87,6.87,0,0,1,137.32,127.59Z"/></svg>