<svg id="Layer_1" data-name="Layer 1" xmlns="http://www.w3.org/2000/svg" viewBox="0 0 327 271"><defs><style>.cls-1{fill:#56788a;}.cls-2{fill:#415e6f;}.cls-3{fill:#fe6b81;}.cls-4{fill:#4dd3f6;}.cls-5{fill:#fea302;}.cls-6{fill:#d8eff3;}.cls-7{fill:#fade63;}.cls-8{fill:#b9e0e4;}.cls-9{fill:#00c1f2;}.cls-10{fill:#fdfefe;}.cls-11{fill:#fdab14;}.cls-12{fill:#56788b;}.cls-13{fill:#90abbc;}</style></defs><path class="cls-1" d="M91.51,67.19c0-6.36-.08-12.72,0-19.08a22.85,22.85,0,0,1,18.35-22.32c.39-.08.89.08,1.1-.45h96a20.24,20.24,0,0,1,13.91,6.75A22.69,22.69,0,0,1,227.38,48c.06,18.13,0,36.26,0,54.4a5.38,5.38,0,0,1-.46,2.93c-1.83,1-3.35.31-4.75-.92a8,8,0,0,1-.39-3.6c0-17.24-.21-34.5.09-51.74a10.47,10.47,0,0,0-11.14-11c-2.92.18-5.86-.44-8.76.27a4.08,4.08,0,0,0-2.69,2.85c-.69,2-1.36,3.93-2,5.91a6,6,0,0,1-5.59,4.56c-1.07.1-2.14.16-3.21.16h-50.3a23.24,23.24,0,0,1-3-.13,6.2,6.2,0,0,1-5.64-4.56c-.62-2-1.35-3.93-2-5.92a3.47,3.47,0,0,0-3.8-2.74c-3.15.07-6.31,0-9.46,0a9,9,0,0,0-9.11,8.92c-.11,5.59,0,11.18,0,16.77a5.55,5.55,0,0,1-.51,3.13c-.15.15-.28.36-.48.41A35.53,35.53,0,0,1,92,67.81C91.76,67.77,91.6,67.47,91.51,67.19Z"/><path class="cls-2" d="M226.72,105.48c0-19.56.27-39.13-.07-58.69-.17-10.2-8.12-19.08-18.54-21-.42-.07-.86,0-1.15-.44h8.61c4.71,1.06,9.09,2.79,12.63,6.24,4.49,4.39,7.13,9.64,7.15,16,.08,17.53.05,35.07.07,52.6,0,1,0,2,0,3a6.44,6.44,0,0,1-4.46,4.36C229.43,107.14,227.72,107.05,226.72,105.48Z"/><path class="cls-3" d="M273.66,169.49c-.69.45-.63,1.25-.8,1.9A23.5,23.5,0,0,1,251,188.75a3.5,3.5,0,0,1-3.89-3.17c-.07-1.81,1.22-3,3.5-3.26,8.23-.87,13.69-5,15.79-12.1a14.83,14.83,0,0,0,.7-3.78c.07-1.87.43-3.46,2.42-4.09s3.06.64,4.1,2Z"/><path class="cls-1" d="M207,245.58c-1.43,0-2.86.07-4.3.07q-43.86,0-87.73,0a23,23,0,0,1-23.09-18.87,28.69,28.69,0,0,1-.34-5.78q0-50.53,0-101.07c.34-.94,1.19-1,2-1,3-.09,6-.08,9,0a2.77,2.77,0,0,1,2.29,1c.66,1.28.46,2.66.46,4q0,49.11,0,98.21c0,3.46.92,6.31,3.68,8.51a10.92,10.92,0,0,0,5.13,2,8.77,8.77,0,0,0,3,.34h89.67c1.72,0,3.44-.08,5.16-.1a10.26,10.26,0,0,0,10-10.39q-.3-20.2,0-40.42a17.79,17.79,0,0,1,2.07-6.89c.54-1.1,1.18-2.73,3.09-2.05a6.07,6.07,0,0,1,.38,3q0,23.31,0,46.63a23.73,23.73,0,0,1-14.93,21.93C210.69,245.36,208.8,245.23,207,245.58Z"/><path class="cls-4" d="M104.39,120a50.86,50.86,0,0,0-12.87,0c-3.48-.65-7,0-10.48-.34a12.1,12.1,0,0,0-9.73,3.23c-3.92,3.34-8.17,6.27-12.26,9.41-1.15.87-2.3,1.45-3.75.75a3.46,3.46,0,0,1-2-3.51c0-17.47,0-34.94,0-52.42a9.66,9.66,0,0,1,9.82-9.57c8.6,0,17.19,0,25.78,0a5,5,0,0,0,2.53-.27,52.37,52.37,0,0,0,12.88-.07,21.16,21.16,0,0,1,6.55-.06c5.43,1.6,8.3,5.06,8.39,10.76q.24,15.75,0,31.52c-.08,5-2.75,8.76-6.63,9.91,1.64-.2,3.31-.82,4.84.39-.36,1.07-1.31,1-2.12,1A74,74,0,0,1,104.39,120Z"/><path class="cls-5" d="M226.74,172.85c-3.08,2-3.29,5.49-4.28,8.57a46.4,46.4,0,0,1-2.14,7.58c-1.13,3.17-3.11,5.42-6.48,6.24a8.66,8.66,0,0,1-8.19-2.49c-1.46-1.44-3.48-2.49-3.92-4.79.66-.55,1.35-.26,2-.1a7.47,7.47,0,0,0,9.3-5.13q2-5.68,3.8-11.42a12.62,12.62,0,0,1,3.23-5.23c4.7-4.62,9.38-9.27,14-14a29.85,29.85,0,0,0,8.51-18.56,32.12,32.12,0,0,0-3.69-18.43,2.56,2.56,0,0,1-.41-1.42A.93.93,0,0,1,239,113c.14,0,.32-.09.42,0a16.67,16.67,0,0,1,6.83,9.49c6,13.67,3.53,27.13-7,37.68-1.36,1.37-2.68,2.78-4,4.17A36.18,36.18,0,0,1,226.74,172.85Z"/><path class="cls-2" d="M226.74,172.85l8.57-8.58a6.15,6.15,0,0,1,.1.85c0,19.62.06,39.24-.08,58.85-.08,11.4-10.5,21.54-21.9,21.67-2.15,0-4.29,0-6.44-.06,3.9-.91,7.67-2.15,10.84-4.72,5.57-4.52,8.84-10.32,8.89-17.54C226.84,206.5,226.75,189.67,226.74,172.85Z"/><path class="cls-3" d="M246.29,122.42a29.4,29.4,0,0,0-7-9.33c-1.08-.26-1.64-1.26-2.55-1.76-1.75-1.47-4.07-2.15-5.56-4l4.28-4.18c6.18-3.29,11.89-2.32,15.19,2.59a10.51,10.51,0,0,1-1,13.09C248.57,120.05,247.42,121.23,246.29,122.42Z"/><path class="cls-3" d="M260,165.93a9.51,9.51,0,0,1-9,9.15c-2.15,0-3.64-1.12-3.77-3a3.27,3.27,0,0,1,3.12-3.43c2.16-.24,3-1.46,3.38-3.47s1.84-3.21,3.52-3S260,163.87,260,165.93Z"/><path class="cls-6" d="M201.79,188c1.48,1.5,3,3,4.44,4.51,2.12,2.14,4.76,2.61,7.62,2.34.79.81.67,1.85.67,2.84q0,12.57,0,25.14a11.16,11.16,0,0,1-2.86,7.66,8.15,8.15,0,0,1-6.43,2.9H115a2.34,2.34,0,0,1-1-.15,9.85,9.85,0,0,1-9.46-9.31c0-.92,0-1.86,0-2.79q0-49.18,0-98.36c0-.93,0-1.86,0-2.8,1.74-.68,3.51-.33,5.28-.2a27.67,27.67,0,0,0,7.87-.12c.41-.6,1.09-.62,1.7-.79,4.48-1.21,7.34-4.44,7.42-9.09.18-10.8.2-21.6,0-32.4-.11-5.62-4.11-9.22-9.73-9.21a27.39,27.39,0,0,1-5.92-.65c-2.19-.32-4.45.44-6.62-.39,0-6.23,0-12.46,0-18.7,0-6.65,4.1-10.7,10.72-10.73,3,0,6,.07,9,0a3.55,3.55,0,0,1,3.91,2.89c.68,2.26,1.48,4.49,2.17,6.74a4.67,4.67,0,0,0,4.31,3.6c.78.07,1.57.12,2.36.12H189.6c5.14,0,6-.62,7.56-5.44.57-1.77,1.12-3.55,1.73-5.3.47-1.34,1.17-2.49,2.83-2.52,8.21-1,12.78,3,12.79,11.13q0,26.07,0,52.15a16.67,16.67,0,0,1-.1,2.35c-.16,1.12-.9,1.5-1.94,1.65-7.54,1.06-13.75,4.64-19,10-4.25,4.37-8.62,8.62-12.91,13a9.58,9.58,0,0,1-4,2.45q-5.73,1.85-11.43,3.8c-2.55.88-4.61,2.3-5.43,5.06a6.69,6.69,0,0,0,1.59,7.15c3.5,3.5,7,7,10.49,10.5.76.76,1.6,1.48,1.6,2.7a4.54,4.54,0,0,1-.56,1.83c-4.19,8.67,1.44,19.59,12.4,20.63a13.65,13.65,0,0,0,6.28-1.12,7,7,0,0,1,2.22-.75,2.06,2.06,0,0,1,1.52.7C197.44,183.33,200.11,185.21,201.79,188Z"/><path class="cls-7" d="M173.17,159.59c-3.62-4.37-7.91-8.08-11.84-12.14a8,8,0,0,1-2.56-5.27c-.19-4,1.9-6.91,6.06-8.34,3.92-1.34,7.85-2.68,11.8-3.94a8.69,8.69,0,0,0,3.58-2.22c5.52-5.41,10.68-11.21,16.56-16.25a29.53,29.53,0,0,1,16.32-7,3.43,3.43,0,0,0,.79-.29c2.94-1.35,5.81-1,8.65.32l4.19,1,4.46,1.86a38.47,38.47,0,0,1,5.94,3.73c.53.86,1.55,1.39,1.65,2.52a33.41,33.41,0,0,1,4.62,16.51,31.31,31.31,0,0,1-4.51,16.74,33.66,33.66,0,0,1-5.33,6.68c-4.52,4.48-9,9-13.53,13.49a9.42,9.42,0,0,0-2.42,4c-1.23,3.87-2.56,7.73-3.86,11.58-1.75,5.17-5.6,7.13-10.9,5.58a6,6,0,0,0-1.05-.14L194,180.46a3,3,0,0,1-1.78-1.12c-6-6.46-12.22-12.66-18.46-18.87A4.72,4.72,0,0,1,173.17,159.59Z"/><path class="cls-8" d="M222.53,104.48a58.15,58.15,0,0,0-8.65-.32c0-18.41-.19-36.83.07-55.23C214,42.67,209,36.82,203,37.83a5.55,5.55,0,0,1-1.28-.06c4.47-.5,9-.84,13.39.18a10.21,10.21,0,0,1,7.45,10.29c-.12,15.82,0,31.63,0,47.44C222.52,98.62,222.53,101.55,222.53,104.48Z"/><path class="cls-2" d="M163.67,41.26c-5.58,0-11.16,0-16.74,0-2.68,0-4.11-1.18-4.08-3.29s1.44-3.15,4-3.16q16.64,0,33.27,0c2.49,0,4,1.22,4,3.18s-1.54,3.27-4.16,3.27C174.55,41.27,169.11,41.26,163.67,41.26Z"/><path class="cls-8" d="M113.93,233.23c1.72,0,3.44-.07,5.16-.07,28.23,0,56.46-.11,84.69.08A10.45,10.45,0,0,0,213.89,223c-.15-9.39,0-18.78,0-28.16,3.51-1.18,5.4-3.74,6.39-7.2a33.27,33.27,0,0,1,2.22-6.23c0,14.2.07,28.39,0,42.59,0,5.18-4.71,9.41-10.27,9.54-3.51.08-7,0-10.54,0h-85A4.92,4.92,0,0,1,113.93,233.23Z"/><path class="cls-9" d="M111,67.51c2.22,0,4.45-.11,6.67-.06a9.7,9.7,0,0,1,9.61,9.6q.15,16.45,0,32.91c0,5.43-4.17,9.38-9.76,9.69h-6.25c2.52-1.25,4.39-2.36,5.61-4.2a11.9,11.9,0,0,0,1.84-6.71q0-14.7,0-29.4C118.74,72.77,116.91,70,111,67.51Z"/><path class="cls-10" d="M90.14,89.14c-5.45,0-10.9,0-16.34,0-2.44,0-3.85-1.13-3.92-3s1.47-3.39,3.89-3.4q16.45-.06,32.9,0c2.77,0,4.18,1.47,3.94,3.68-.2,1.82-1.37,2.73-3.7,2.74C101.32,89.16,95.73,89.14,90.14,89.14Z"/><path class="cls-10" d="M88.17,103.77c-4.8,0-9.6,0-14.41,0-2.42,0-3.83-1.16-3.88-3.06s1.43-3.34,3.71-3.36c9.68,0,19.35-.06,29,0,2.55,0,3.83,1.4,3.7,3.48s-1.34,2.91-4,2.92C97.63,103.78,92.9,103.77,88.17,103.77Z"/><path class="cls-11" d="M238.77,113.59c-.56-.83-1.45-1.45-1.65-2.52a7.1,7.1,0,0,1,2.17,2Z"/><path class="cls-3" d="M173.17,159.59a4.43,4.43,0,0,1,.89.55c6.73,6.7,13.47,13.38,19.95,20.32-6.79,3.56-13.67,2.8-18.61-2.1A15.11,15.11,0,0,1,173.17,159.59Z"/><path class="cls-12" d="M163.54,212.46c5.58,0,11.17,0,16.75,0,2.36,0,3.79,1.2,3.84,3.11s-1.38,3.31-3.69,3.32q-17,.06-33.94,0c-2.37,0-3.7-1.31-3.69-3.3s1.28-3.12,3.75-3.13C152.22,212.44,157.88,212.46,163.54,212.46Z"/><path class="cls-3" d="M164.85,102.27c.29-11.86,10.64-22.16,22.4-22.31,2.52,0,4.08,1.12,4.14,3s-1.47,3.27-3.89,3.42a16.82,16.82,0,0,0-16.2,16.1c-.17,2.68-1.2,3.85-3.33,3.79S164.79,104.77,164.85,102.27Z"/><path class="cls-13" d="M137.88,199.22c-3.58,0-7.16,0-10.74,0-2,0-3.6-1.24-3.58-2.9a3.36,3.36,0,0,1,3-3.39,8.74,8.74,0,0,1,1.7-.15H148a9.43,9.43,0,0,1,1.9.25,3,3,0,0,1,2.39,3.52,2.75,2.75,0,0,1-3.05,2.66C145.47,199.24,141.67,199.22,137.88,199.22Z"/><path class="cls-13" d="M133.6,184.16c-2.22,0-4.44,0-6.66,0a3,3,0,0,1-3.32-2.7c-.27-1.77.79-3,2.52-3.48a6.41,6.41,0,0,1,1.68-.27c4,0,8-.06,12,0,2.37,0,3.72,1.11,3.88,2.87.19,2.14-.89,3.47-3,3.54C138.33,184.22,136,184.16,133.6,184.16Z"/><path class="cls-3" d="M178.53,102.54a9.75,9.75,0,0,1,9.41-9.1,3.46,3.46,0,0,1,3.41,3,2.92,2.92,0,0,1-2.61,3.36c-2.28.32-3.61,1.26-3.87,3.75a3,3,0,0,1-3.67,2.74C179.39,106,178.48,104.77,178.53,102.54Z"/></svg>