<svg id="Layer_1" data-name="Layer 1" xmlns="http://www.w3.org/2000/svg" viewBox="0 0 327 271"><defs><style>.cls-1{fill:#637887;}.cls-2{fill:#dfdfde;}.cls-3{fill:#3a5569;}.cls-4{fill:#b3bebe;}.cls-5{fill:#748794;}.cls-6{fill:#f2f2f2;}.cls-7{fill:#8a9aa3;}.cls-8{fill:#8999a2;}.cls-9{fill:#f06e6f;}.cls-10{fill:#667a89;}.cls-11{fill:#627787;}</style></defs><path class="cls-1" d="M57.56,249.84q-3.83-3.33-7.63-6.68c.12-1,1-1,1.67-1a26.78,26.78,0,0,1,2.69,0H273.22a12.24,12.24,0,0,1,3.77.24c1.05.62.75,1.37.05,2-2.31,2-4.42,4.18-7.18,5.56Z"/><path class="cls-2" d="M222,49.79c.71.68.4,1.54.41,2.33q0,14.93,0,29.87c1.24,2,.5,4.24.65,6.37.16,3.64.07,7.29.07,10.93q0,33.92,0,67.84c0,5-.32,5.3-5.34,5.3H109.66c-5,0-5.36-.32-5.36-5.28V90.39a13.51,13.51,0,0,1,.07-2c.15-2.14-.6-4.37.65-6.39,0-19.35.06-38.7,0-58,0-2.36.71-2.79,2.89-2.78,27.77.07,55.53,0,83.3.06.86,0,1.8-.31,2.57.37.49,3.1.19,6.22.23,9.34.05,5,0,10.09,0,15.14,0,2.85.15,3,3.07,3,7.07,0,14.15,0,21.22,0A6.3,6.3,0,0,1,222,49.79Z"/><path class="cls-1" d="M222.38,88.27V82q16.23,0,32.45,0c5.29,0,7.88,2.55,7.88,7.76q0,65.26,0,130.54c0,4.33-1.83,6.78-5.3,7.25a2,2,0,0,1-.77.45,19.94,19.94,0,0,1-4,.15H75.21a15.85,15.85,0,0,0-4,.23,1.8,1.8,0,0,1-1.65-.48c-3.66-1.6-4.92-4.39-4.91-8.34q.12-64.58,0-129.16C64.69,84.29,67,82,73.25,82H105v6.28c-1,.81-2.27.64-3.45.64-8.66,0-17.31,0-26,0-3.26,0-3.43.17-3.43,3.38q0,62.51,0,125c0,3.14.1,3.21,3.55,3.21,40.75,0,81.51-.25,122.26.13,17.9.16,35.81.15,53.71.32.53,0,1.05,0,1.57,0,2.65,0,2.82-.21,2.87-2.76,0-.3,0-.6,0-.89V93c0-.37,0-.74,0-1.11-.07-2.67-.28-2.93-3-2.94-9.11,0-18.21,0-27.32,0C224.65,88.91,223.42,89.09,222.38,88.27Z"/><path class="cls-3" d="M256.89,227.52l.53,0c.64.75,1.52.39,2.27.39,5.5,0,11,.07,16.48,0,1.34,0,1.79.3,1.76,1.71-.07,4.21,0,8.43.07,12.64l-.16-.07c-.67.48-1.45.25-2.17.25H50.84c-.58,0-1.2.19-1.73-.24,0-4.22,0-8.44-.1-12.66,0-1.52.59-1.63,1.82-1.63,6.24,0,12.48,0,18.72,0L71,228a6.1,6.1,0,0,1,2.65-.19q90.3,0,180.6,0A5.5,5.5,0,0,0,256.89,227.52Z"/><path class="cls-4" d="M222,49.79c-8.85,0-17.7,0-26.54,0-1.41,0-2.18-.19-2.16-1.9.08-8.23,0-16.46,0-24.69,0-.58-.08-1.2.45-1.64C203.25,30.89,212.74,40.21,222,49.79Z"/><path class="cls-5" d="M49.11,242.22l5.82,0H274.71c1.05,0,2.09,0,3.13,0,.15.42.13.77-.36.95-.65-.75-1.53-.45-2.31-.45q-111.46,0-222.93,0c-.78,0-1.66-.3-2.31.45C49.49,243,49.12,242.77,49.11,242.22Z"/><path class="cls-6" d="M222.38,88.27c10.75,0,21.5,0,32.25-.06,1.79,0,2.28.62,2.27,2.34q0,64.53,0,129c0,2-.84,2.12-2.41,2.12-16.19-.06-32.39.12-48.59-.11-43.88-.62-87.76-.16-131.64-.33-2.17,0-2.89-.4-2.88-2.77q.12-63.62.06-127.25c0-3,0-3,2.89-3l30.68,0q0,28.91,0,57.82c0,7.59.09,15.18-.06,22.77,0,2.34.72,2.84,2.93,2.82,10.45-.11,20.9-.05,31.35-.05h79.94c3.09,0,3.09,0,3.09-3V90.94C222.34,90.05,222.37,89.16,222.38,88.27Z"/><path class="cls-7" d="M163.82,76.15H132.94c-1.28,0-2.49.26-2.45-1.81,0-1.91,1.11-1.71,2.33-1.71q31.11,0,62.22,0c1.22,0,2.31-.2,2.34,1.71,0,2.07-1.18,1.82-2.45,1.81Z"/><path class="cls-7" d="M163.82,112.27q-15.57,0-31.12,0c-1.36,0-2.22-.07-2.21-1.85s.87-1.71,2.11-1.71q31.34,0,62.68,0c1.26,0,2.08,0,2.1,1.72s-.88,1.84-2.22,1.84Q179.49,112.25,163.82,112.27Z"/><path class="cls-7" d="M163.83,129.72H132.94c-1.27,0-2.48.26-2.45-1.81,0-1.9,1.09-1.73,2.32-1.72H195c1.21,0,2.31-.22,2.34,1.7s-1.14,1.83-2.43,1.83Z"/><path class="cls-8" d="M163.7,94.06q-15.45,0-30.9,0c-1.23,0-2.34.17-2.29-1.74s1.27-1.48,2.3-1.48h62.25c1,0,2.26-.4,2.3,1.49s-1.08,1.72-2.31,1.72Q179.38,94,163.7,94.06Z"/><path class="cls-8" d="M163.91,147.62H132.79c-1,0-2.24.38-2.28-1.5s1.11-1.71,2.32-1.71h62.25c1.06,0,2.24-.36,2.28,1.51s-1.12,1.7-2.32,1.7Z"/><path class="cls-9" d="M150.24,58.24c-5.88,0-11.77,0-17.65,0-1.22,0-2.12,0-2.1-1.69,0-1.51.54-1.86,1.95-1.86q18.1.07,36.2,0c1.27,0,1.86.25,1.88,1.7s-.55,1.87-2,1.85C162.46,58.21,156.35,58.24,150.24,58.24Z"/><path class="cls-10" d="M256.89,227.52c-.58.7-1.38.43-2.09.43q-91.91,0-183.8,0c.6-.67,1.39-.42,2.11-.42Z"/><path class="cls-11" d="M163.69,232.87h28.64c2.32,0,3.75.9,3.57,2.37-.25,2-1.7,2.55-3.55,2.55q-28.64,0-57.26,0c-1.63,0-3-.35-3.52-2.09-.38-1.24.42-2,1.31-2.56a3.54,3.54,0,0,1,2.18-.26Z"/><path class="cls-3" d="M236.6,190.26c-4.5,1.45-9,3-13.52,4.31a4,4,0,0,0-3.05,3.05c-1.36,4.59-2.94,9.12-4.61,14.25-4.8-12-9.38-23.51-14.14-35.48l35.28,13.3Z"/></svg>