<svg id="Layer_1" data-name="Layer 1" xmlns="http://www.w3.org/2000/svg" viewBox="0 0 327 271"><defs><style>.cls-1{fill:#56788a;}.cls-2{fill:#f06e6f;}</style></defs><path class="cls-1" d="M207,29.44c2.36.58,4.79,1,7.07,1.78,13.85,4.83,22.41,17,22.5,32.09.09,16.42,0,32.84,0,49.27,0,4.47-2,7.55-5.58,8.74a8.25,8.25,0,0,1-9.26-2.82c-1.48-1.92-1.72-4.14-1.72-6.45,0-16.08,0-32.16,0-48.24,0-5.79-1.85-10.65-6.48-14.3A16.37,16.37,0,0,0,203.17,46Q152.56,46,102,46c-9.81,0-16.64,7.13-16.84,17.15-.06,3.24,0,6.49,0,9.73q0,67,0,133.93c0,5.87,1.77,10.81,6.46,14.52a17.08,17.08,0,0,0,11,3.53c8.9,0,17.8-.07,26.7,0a8.22,8.22,0,0,1,7.27,12.34,7.73,7.73,0,0,1-6.94,4.15c-10,.05-20,.37-30-.11-17.12-.83-31.06-15.23-31-33.49q.1-72.34,0-144.7c0-18.07,13.58-31.6,28.75-33.32.15,0,.28-.23.42-.35h.83a3.14,3.14,0,0,0,2.48,0Z"/><path class="cls-1" d="M101,29.44a1.83,1.83,0,0,1-2.48,0Z"/><path class="cls-2" d="M152.34,95.69c-14,0-28,0-42,0-5.78,0-9.63-4.71-8.47-10.16a8.33,8.33,0,0,1,7.31-6.34,13.86,13.86,0,0,1,1.44-.05q41.92,0,83.85,0c5.36,0,9.06,3.52,9,8.41-.08,4.66-3.68,8.11-8.64,8.13-10.55,0-21.11,0-31.67,0Z"/><path class="cls-2" d="M152.76,112.26c14,0,28,0,42,0,6.71,0,10.76,6.64,7.59,12.28a8,8,0,0,1-6.9,4.24c-1.59.08-3.18,0-4.76,0q-40,0-79.92,0c-6,0-9.75-4-9-9.48.53-4.16,4-7.06,8.55-7.07,11.39,0,22.78,0,34.17,0Z"/><path class="cls-2" d="M135.68,162c-8.55,0-17.1,0-25.66,0a8.15,8.15,0,0,1-8-5.73,8.28,8.28,0,0,1,8-10.81q25.75,0,51.52,0a8.26,8.26,0,1,1,0,16.52C152.92,162,144.3,162,135.68,162Z"/><path class="cls-1" d="M215.81,175.6c-1-1-1.49-1.11-2.53-.06-9.43,9.49-18.93,18.93-28.4,28.38a3.68,3.68,0,0,0-1.14,1.44c-1.57,5.17-3.16,10.34-4.83,15.8,5.47-1.5,10.51-2.9,15.55-4.26a5.19,5.19,0,0,0,2.4-1.5q14-14.06,28.13-28.05c1-1,1.13-1.51,0-2.54Q220.32,180.33,215.81,175.6Z"/><path class="cls-1" d="M258.34,164a11.78,11.78,0,0,0-.22-1.43c-2-9.72-7.69-16.41-17.2-19.31s-18.12-.5-25.22,6.55q-22.18,22-44.27,44.14a12.62,12.62,0,0,0-3.24,5.42q-4.56,15.12-9.17,30.21c-1.06,3.46-.91,6.7,1.77,9.41s5.75,2.84,9.19,1.87c10.33-2.9,20.68-5.74,31-8.59a12,12,0,0,0,5.5-3.09Q228.77,206.93,251,184.7a24.55,24.55,0,0,0,7.45-18C258.45,165.92,258.41,165,258.34,164ZM225,187.35q-14.13,14-28.13,28.05a5.19,5.19,0,0,1-2.4,1.5c-5,1.36-10.08,2.76-15.55,4.26,1.67-5.46,3.26-10.63,4.83-15.8a3.68,3.68,0,0,1,1.14-1.44c9.47-9.45,19-18.89,28.4-28.38,1-1,1.56-1,2.53.06q4.5,4.71,9.23,9.21C226.12,185.84,226,186.36,225,187.35Zm13.57-13.59c-.52.49-.81.45-1.3,0q-5.14-5.22-10.36-10.37c-.51-.5-.46-.8,0-1.35a8.77,8.77,0,0,1,9.65-2.84c3.23,1.17,5.39,4.31,5.37,8.41C242,169.81,240.54,171.91,238.56,173.76Z"/></svg>